<svg xmlns="http://www.w3.org/2000/svg" viewBox="0 0 201.47 216.48"><defs><style>.cls-1{fill:#010101;}</style></defs><title>camisa</title><g id="Capa_2" data-name="Capa 2"><g id="Capa_1-2" data-name="Capa 1"><path class="cls-1" d="M152,13.72S158.78-6.9,189.09,5.9c0,0,13.87,24.35,12.25,40.88L164.88,61.29S146.94,37.64,152,13.72Z"/><path class="cls-1" d="M140.41.64,77.73,0A57.17,57.17,0,0,0,60.45,2.49L34.88,7l5.71,87.41,4.09,122.1,133.53-1.64s-8.85-60.35-3.12-164.46c0,0-.93-35.31,6.72-40.91L166.42,6.28A79,79,0,0,0,140.41.64Z"/><path class="cls-1" d="M54.7,19.84S52-1.68,19.8,5.12c0,0-18.25,21.26-19.8,37.8L33,64.11S55.14,44.3,54.7,19.84Z"/></g></g></svg>