<svg xmlns="http://www.w3.org/2000/svg" viewBox="0 0 169.95 271.74"><defs><style>.cls-1,.cls-2{fill:#151d33;}.cls-2{stroke:#010101;stroke-miterlimit:10;stroke-width:0.34px;}</style></defs><title>Recurso 1</title><g id="Capa_2" data-name="Capa 2"><g id="Capa_1-2" data-name="Capa 1"><path class="cls-1" d="M133.1,0l30.49,135.35-54.81,12.53L104.12,134l-4.72-14.1L66.11,20.41Z"/><path class="cls-2" d="M69,17.44q-.85,45.35-1.72,90.68l-.48,25.66L10,137.34.17,2.19"/><path class="cls-2" d="M9.56,136.42c0,.47-2.39,102.25-2.39,102.29l-.09,4.08c-10.35,31.42-3.83,24.91-3.92,28.73,18.94.44,50.24-1.82,57.62-5.36.09-2.72,5.58.78,7-6.08.9-6.2-2.17-13.67-2-17.67,1.14-35.15-.47-69.52.66-104.66C58.51,149.2,45.13,155.11,9.56,136.42Z"/><path class="cls-2" d="M162.57,137c0,.65,4.32,110.41,4.32,110.45s-.08,3.65-.07,3.66c8.21,18.17-3.26,13.44-3.22,15.15-18.95.25-35.61,1.15-54.55,1.41-3.32,4-6.81-8.9-2.3-20.82l1.07-6c0-.29,0-1,0-4.26-.06-2.06-.08-3.09-.17-4.92-.12-2.66-.36-26.67-.79-93.93C110.05,142.87,113.7,145.59,162.57,137Z"/><ellipse class="cls-2" cx="134.76" cy="139.4" rx="27.47" ry="14.6" transform="translate(-15.33 16.65) rotate(-6.69)"/><ellipse class="cls-2" cx="38.21" cy="135.63" rx="27.9" ry="14.25"/></g></g></svg>