<svg xmlns="http://www.w3.org/2000/svg" viewBox="0 0 960 560.8"><defs><style>.cls-1,.cls-19,.cls-30,.cls-33,.cls-34,.cls-35,.cls-39,.cls-43,.cls-47,.cls-53,.cls-57,.cls-61,.cls-8{fill:#fff;}.cls-17,.cls-18,.cls-2,.cls-26,.cls-27,.cls-36,.cls-4,.cls-40,.cls-45,.cls-46,.cls-5,.cls-50,.cls-54,.cls-59,.cls-60{fill:#f5a582;}.cls-17,.cls-18,.cls-2,.cls-45,.cls-46,.cls-59,.cls-60{stroke:#250c0d;}.cls-10,.cls-11,.cls-17,.cls-18,.cls-19,.cls-2,.cls-20,.cls-21,.cls-23,.cls-24,.cls-25,.cls-26,.cls-27,.cls-28,.cls-29,.cls-30,.cls-31,.cls-32,.cls-33,.cls-34,.cls-35,.cls-36,.cls-37,.cls-38,.cls-39,.cls-4,.cls-40,.cls-41,.cls-42,.cls-43,.cls-44,.cls-45,.cls-46,.cls-47,.cls-48,.cls-49,.cls-5,.cls-50,.cls-51,.cls-52,.cls-53,.cls-54,.cls-55,.cls-56,.cls-57,.cls-58,.cls-59,.cls-6,.cls-60,.cls-61,.cls-62,.cls-63,.cls-64,.cls-7,.cls-8{stroke-miterlimit:10;}.cls-11,.cls-2,.cls-4,.cls-7,.cls-8{stroke-width:0.74px;}.cls-28,.cls-3,.cls-37,.cls-51,.cls-6{fill:#010101;}.cls-10,.cls-11,.cls-23,.cls-24,.cls-26,.cls-27,.cls-28,.cls-29,.cls-30,.cls-31,.cls-32,.cls-36,.cls-37,.cls-38,.cls-39,.cls-4,.cls-40,.cls-41,.cls-42,.cls-43,.cls-5,.cls-50,.cls-51,.cls-52,.cls-53,.cls-54,.cls-55,.cls-56,.cls-57,.cls-6,.cls-7,.cls-8{stroke:#010101;}.cls-5{stroke-width:0.56px;}.cls-6{stroke-width:1.48px;}.cls-10,.cls-21,.cls-25,.cls-29,.cls-31,.cls-38,.cls-44,.cls-49,.cls-52,.cls-58,.cls-63,.cls-64,.cls-7{fill:none;}.cls-9{fill:#27180e;}.cls-10{stroke-width:0.37px;}.cls-11,.cls-32,.cls-41,.cls-55{fill:#210f0b;}.cls-12{font-size:106px;}.cls-12,.cls-16{fill:#1d1d1b;font-family:TwCenMT-CondensedExtraBold, Tw Cen MT Condensed Extra Bold;font-weight:800;}.cls-13{letter-spacing:-0.01em;}.cls-14{letter-spacing:-0.02em;}.cls-15{letter-spacing:-0.04em;}.cls-16{font-size:20px;}.cls-17,.cls-24,.cls-26,.cls-29,.cls-30,.cls-32{stroke-width:0.07px;}.cls-18,.cls-31{stroke-width:0.04px;}.cls-19,.cls-47,.cls-61{stroke:#d48b0a;}.cls-19{stroke-width:0.01px;}.cls-20,.cls-48,.cls-62{fill:#d5d5d4;stroke:#0391bf;}.cls-20,.cls-21,.cls-25{stroke-width:0.02px;}.cls-21,.cls-49,.cls-63{stroke:#0b6684;}.cls-22,.cls-23,.cls-24,.cls-42,.cls-56{fill:#151d33;}.cls-23,.cls-27{stroke-width:0.06px;}.cls-25,.cls-44,.cls-58{stroke:#df8109;}.cls-28,.cls-33{stroke-width:0.15px;}.cls-33,.cls-34,.cls-35{stroke:#1e1e1c;}.cls-34{stroke-width:0.13px;}.cls-35{stroke-width:0.13px;}.cls-36,.cls-38,.cls-39,.cls-41,.cls-45{stroke-width:0.07px;}.cls-37{stroke-width:0.15px;}.cls-40,.cls-42{stroke-width:0.05px;}.cls-43{stroke-width:0.09px;}.cls-44,.cls-48,.cls-49{stroke-width:0.02px;}.cls-46{stroke-width:0.04px;}.cls-47{stroke-width:0.01px;}.cls-50,.cls-52,.cls-53,.cls-55,.cls-59{stroke-width:0.07px;}.cls-51{stroke-width:0.15px;}.cls-54,.cls-56{stroke-width:0.06px;}.cls-57{stroke-width:0.09px;}.cls-58,.cls-62,.cls-63{stroke-width:0.02px;}.cls-60{stroke-width:0.04px;}.cls-61{stroke-width:0.01px;}.cls-64{stroke:#1d1d1b;stroke-width:1.16px;}</style></defs><g id="Capa_2" data-name="Capa 2"><g id="Capa_2-2" data-name="Capa 2"><rect class="cls-1" width="960" height="560"/><polygon class="cls-2" points="135.83 377.76 20.66 560.41 70.45 559.55 175.06 406.03 167.42 385.84 153.4 377.76 135.83 377.76"/><polygon class="cls-2" points="402.82 359.11 514.53 559.12 459.05 560 358.4 384.39 367.42 364.76 381.97 357.68 402.82 359.11"/><path class="cls-3" d="M383.64,560.41s-6.29-182.52,6.2-191.67l-25.12-5.21c-11.12-4.92-30.29-9.07-42.46-9.2l-102.3-1a93.26,93.26,0,0,0-28.21,4.06L150,364.67,167.44,560"/><path class="cls-3" d="M194.06,384s-4.42-35.12-57-24c0,0-29.78,34.7-32.31,61.69l53.9,34.58S194.79,423.91,194.06,384Z"/><path class="cls-3" d="M356.31,381.82s4.42-35.12,57-24c0,0,29.79,34.71,32.32,61.7l-53.91,34.58S355.59,421.74,356.31,381.82Z"/><path class="cls-4" d="M254.87,337.55s-.12,18.62-3.86,24.65c-5.69,9.19,45.37,8.23,44,0,0,0-5,.15-4.39-24.65Z"/><rect class="cls-5" x="150.01" y="226.34" width="44.4" height="65.21" rx="22.2"/><rect class="cls-5" x="356.55" y="226.34" width="44.4" height="65.21" rx="20.05"/><rect class="cls-5" x="172.21" y="135.57" width="206.54" height="206.54" rx="100.51"/><path class="cls-6" d="M239.87,195.35s-27.51-15.26-65.43,0l1.38-15.72s17.11-15.26,64.05,0C239.87,179.63,242.42,181.25,239.87,195.35Z"/><path class="cls-6" d="M288.86,197.36s29.57-16.62,70.33,0l-1.5-17.13s-18.38-16.62-68.83,0C288.86,180.23,286.13,182,288.86,197.36Z"/><path class="cls-7" d="M259,268.11s13.7-11.66,27.43,0"/><path class="cls-7" d="M251,291.54s20.17,12,36.68,0"/><ellipse class="cls-8" cx="320.17" cy="234.55" rx="33.76" ry="33.56"/><circle class="cls-9" cx="311.39" cy="234.55" r="15.03"/><circle class="cls-1" cx="304.99" cy="230.88" r="4.54"/><ellipse class="cls-8" cx="228.17" cy="235.42" rx="33.76" ry="33.56"/><circle class="cls-9" cx="219.38" cy="235.42" r="15.03"/><circle class="cls-1" cx="212.99" cy="231.74" r="4.54"/><path class="cls-10" d="M157.09,241.14s9.62-18.4,15.12,14.79"/><path class="cls-10" d="M169.08,243l-7.71,20.53s-2.29-.08,12.27,11.23"/><path class="cls-10" d="M394,238.64s-9.62-18.4-15.12,14.8"/><path class="cls-10" d="M382,240.54l7.71,20.53S392,261,377.45,272.3"/><path class="cls-11" d="M127.48,78s-7.66,27,19.43,47.42c0,0-33,17.64-55.95,7.17,0,0,3.54,39.7,43.58,45.21,0,0-22.38,15.44-23,51.83,0,0,12.36-16.54,24.14-19.3,0,0-11.78,39.7-5.3,43.56,0,0,17.08-23.16,28.27-22.05,0,0-6.31-20.55-5.3-18.75,0,0-.59,19.3,32.39,50.17,0,0-5-21.17-8.22-42.06-2.43-15.83-3.12-35.28-2.25-31.39,0,0-1.31,20,4,24.38,0,0,30.63-61.75,33.57-55.69,0,0,2.36,23.16,13.55,38.6,0,0-1.77-51.28,5.89-50.73,0,0,23.56,48.52,50.06,51.28,0,0-13-28.12-7.07-48.52,0,0,57.13,42.45,55.36,46.31s-12.37-52.93-20-50.72c0,0,51.82,54,47.7,55.69,0,0-.59-13.79-15.9-46.87,0,0,37,65.06,16.13,115.79,0,0,19.46-18.48,27.86-34,3.77-7,5.69-18.25,1.95-18.42v10.89s12.49,5,12.49,17.66c0,0,33.15-100-20.44-123.67,0,0,48.88-17.64,12.36-37.49,0,0,5.89,14.89-14.72,33.63,0,0-.59-24.53-116.9-26.46C261.17,91.52,131,99,127.48,78Z"/><text class="cls-12" transform="translate(589.3 193.51)">J<tspan class="cls-13" x="37.52" y="0">U</tspan><tspan x="95.96" y="0">AN </tspan><tspan class="cls-14" x="0" y="92">D</tspan><tspan class="cls-15" x="54.35" y="92">A</tspan><tspan x="106.78" y="92">VID</tspan></text><text class="cls-16" transform="translate(725 450.27)">FICHA TECNICA</text><text class="cls-16" transform="translate(739.89 476.13)">PERSONAJE</text><polygon class="cls-17" points="642.87 451.86 638.31 452.12 639.34 465.3 643.87 465.2 642.87 451.86"/><circle class="cls-17" cx="641.79" cy="466.06" r="2.11"/><polygon class="cls-17" points="606.12 434.06 595.34 450.19 599.36 452.5 610.01 436.87 609.25 434.86 607.86 434.06 606.12 434.06"/><polygon class="cls-17" points="632.63 432.21 642.31 449.54 638.28 451.93 628.22 434.72 629.12 432.77 630.56 432.07 632.63 432.21"/><polygon class="cls-17" points="594.68 452.2 599.22 451.8 600.12 464.99 595.62 465.55 594.68 452.2"/><circle class="cls-18" cx="640.62" cy="451.2" r="2.4"/><circle class="cls-18" cx="597.11" cy="451.9" r="2.4"/><circle class="cls-17" cx="598.13" cy="466.17" r="2.22"/><path class="cls-19" d="M598.12,463.27H598a.16.16,0,0,1-.18-.14h0A.16.16,0,0,1,598,463l.12,0a.17.17,0,0,1,.18.15h0A.16.16,0,0,1,598.12,463.27Z"/><path class="cls-19" d="M597.82,463.13l.18,0s0-.14,0-.14"/><path class="cls-19" d="M598.23,463.05s-.17,0-.14.08l0,.12"/><path class="cls-19" d="M597.9,463.24s.08-.07.11,0a.08.08,0,0,1,0,.07"/><path class="cls-19" d="M597.81,463.08s-.12,0-.13,0-.06.1.06.09,0-.06.08,0"/><path class="cls-19" d="M597.83,463s.13-.22.27-.13-.12,0-.07.07"/><path class="cls-19" d="M597.85,463.25s.19.19.31.07-.13,0-.09-.05"/><path class="cls-19" d="M598.14,462.94s.2-.09.19,0-.14,0-.11,0"/><path class="cls-19" d="M598.21,463.22s.22,0,.18-.07-.13.09-.11,0"/><circle class="cls-20" cx="595.34" cy="463.47" r="0.1"/><circle class="cls-20" cx="595.54" cy="463.45" r="0.1"/><circle class="cls-21" cx="595.7" cy="463.43" r="0.01"/><circle class="cls-21" cx="595.76" cy="463.42" r="0.01"/><circle class="cls-20" cx="595.91" cy="463.4" r="0.1"/><circle class="cls-20" cx="596.14" cy="463.38" r="0.1"/><circle class="cls-21" cx="596.29" cy="463.35" r="0.01"/><circle class="cls-21" cx="596.35" cy="463.34" r="0.01"/><circle class="cls-20" cx="596.51" cy="463.32" r="0.1"/><circle class="cls-20" cx="596.74" cy="463.29" r="0.1"/><circle class="cls-21" cx="596.89" cy="463.27" r="0.01"/><circle class="cls-21" cx="596.96" cy="463.26" r="0.01"/><circle class="cls-20" cx="597.35" cy="463.19" r="0.1"/><circle class="cls-21" cx="597.62" cy="463.15" r="0.01"/><circle class="cls-21" cx="597.56" cy="463.16" r="0.01"/><circle class="cls-21" cx="597.5" cy="463.17" r="0.01"/><circle class="cls-20" cx="597.1" cy="463.23" r="0.1"/><circle class="cls-21" cx="595.18" cy="463.48" r="0.01"/><circle class="cls-21" cx="598.32" cy="463.04" r="0.01"/><circle class="cls-20" cx="598.6" cy="462.98" r="0.1"/><circle class="cls-21" cx="598.39" cy="463.03" r="0.01"/><circle class="cls-20" cx="598.84" cy="462.93" r="0.1"/><circle class="cls-21" cx="598.45" cy="463.01" r="0.01"/><circle class="cls-20" cx="599.2" cy="462.87" r="0.1"/><circle class="cls-21" cx="598.99" cy="462.9" r="0.01"/><circle class="cls-20" cx="599.44" cy="462.81" r="0.1"/><circle class="cls-21" cx="599.05" cy="462.89" r="0.01"/><circle class="cls-20" cx="599.79" cy="462.74" r="0.1"/><circle class="cls-21" cx="599.58" cy="462.79" r="0.01"/><circle class="cls-20" cx="600.03" cy="462.69" r="0.1"/><circle class="cls-21" cx="599.64" cy="462.78" r="0.01"/><circle class="cls-21" cx="600.18" cy="462.65" r="0.01"/><path class="cls-3" d="M624.63,431.73l-10.16-.1a9.48,9.48,0,0,0-2.8.4l-4.15.73L609,440s.85,26.89-.34,26.05H631s-1.91-4.7-.75-26.21c0,0-.15-5.73,1.09-6.63l-2.49-.52A13,13,0,0,0,624.63,431.73Z"/><path class="cls-3" d="M611.9,434.68s-.44-3.49-5.66-2.39c0,0-3,3.45-3.21,6.13l5.36,3.43S612,438.64,611.9,434.68Z"/><path class="cls-3" d="M628,434.46s.44-3.48,5.66-2.38c0,0,3,3.44,3.21,6.13l-5.35,3.43S627.94,438.43,628,434.46Z"/><path class="cls-22" d="M630.39,466l2.35,22.37-9.06,1-.49-2.33-.49-2.36L619.22,468Z"/><path class="cls-23" d="M619.92,471.2q-1.38,7.21-2.77,14.44l-.79,4.08-9.16-1,2.15-21.86"/><path class="cls-24" d="M609.07,466h21.21l.29,2.6a18.73,18.73,0,0,1-10.89,3.05,22,22,0,0,1-10.44-3.05Z"/><rect class="cls-25" x="619.92" y="466.01" width="0.07" height="5.6"/><path class="cls-25" d="M611.11,466a1.94,1.94,0,0,1-1.83,2.53"/><path class="cls-25" d="M628.65,466s-.65,2.59,1.87,2.5"/><path class="cls-23" d="M607.2,488.73c0,.08-1.78,16.48-1.78,16.49l-.08.66c-2.1,4.93-1,4-1,4.58,3,.33,8.14.4,9.38-.07,0-.44.89.2,1.21-.89a16.1,16.1,0,0,0-.09-2.88c.67-5.66.88-11.24,1.54-16.9C614.93,491.46,612.69,492.24,607.2,488.73Z"/><path class="cls-23" d="M632.7,488.34c0,.1,2.39,17.75,2.39,17.76l0,.59c1.61,2.81-.32,2.22-.28,2.49-3.06.34-5.73.74-8.79,1.07-.47.7-1.23-1.34-.69-3.33l.09-1c0-.05,0-.16-.08-.69,0-.33-.06-.5-.1-.79s-.46-4.3-1.56-15.15C624.32,490.09,625,490.47,632.7,488.34Z"/><ellipse class="cls-23" cx="628.32" cy="489.18" rx="4.45" ry="2.37" transform="translate(-52.73 76.56) rotate(-6.69)"/><ellipse class="cls-23" cx="611.71" cy="489.6" rx="2.31" ry="4.52" transform="translate(59.01 1044.95) rotate(-83.81)"/><path class="cls-25" d="M628.71,466s-.59,2.53,1.81,2.45"/><path class="cls-25" d="M611,466a1.83,1.83,0,0,1-1.76,2.45"/><path class="cls-26" d="M617.94,430.07a7.08,7.08,0,0,1-.39,2.45c-.56.91,4.51.81,4.38,0,0,0-.5,0-.44-2.45Z"/><rect class="cls-27" x="607.52" y="419.02" width="4.41" height="6.48" rx="2.2"/><rect class="cls-27" x="628.04" y="419.02" width="4.41" height="6.48" rx="1.99"/><rect class="cls-27" x="609.73" y="410.01" width="20.51" height="20.51" rx="9.98"/><path class="cls-28" d="M616.45,416a7.92,7.92,0,0,0-6.5,0l.14-1.57s1.7-1.51,6.36,0C616.45,414.38,616.7,414.54,616.45,416Z"/><path class="cls-28" d="M621.31,416.14a8.45,8.45,0,0,1,7,0l-.15-1.7s-1.83-1.65-6.84,0C621.31,414.44,621,414.62,621.31,416.14Z"/><path class="cls-29" d="M618.35,423.17a2.11,2.11,0,0,1,2.72,0"/><path class="cls-29" d="M617.55,425.5a3.56,3.56,0,0,0,3.64,0"/><ellipse class="cls-30" cx="624.42" cy="419.84" rx="3.35" ry="3.33"/><circle class="cls-9" cx="623.55" cy="419.84" r="1.49"/><circle class="cls-1" cx="622.92" cy="419.47" r="0.45"/><ellipse class="cls-30" cx="615.29" cy="419.92" rx="3.35" ry="3.33"/><circle class="cls-9" cx="614.41" cy="419.92" r="1.49"/><circle class="cls-1" cx="613.78" cy="419.56" r="0.45"/><path class="cls-31" d="M608.23,420.49s.95-1.82,1.5,1.47"/><path class="cls-31" d="M609.42,420.68l-.77,2s-.23,0,1.22,1.12"/><path class="cls-31" d="M631.75,420.24s-1-1.82-1.5,1.47"/><path class="cls-31" d="M630.56,420.43l.77,2s.23,0-1.22,1.12"/><path class="cls-32" d="M605.29,404.29a4.56,4.56,0,0,0,1.93,4.71s-3.28,1.75-5.56.71A5.07,5.07,0,0,0,606,414.2a6.4,6.4,0,0,0-2.28,5.15,5.77,5.77,0,0,1,2.39-1.92s-1.17,3.95-.52,4.33c0,0,1.69-2.3,2.81-2.19,0,0-.63-2-.53-1.86,0,0-.06,1.91,3.22,5,0,0-.5-2.1-.82-4.18a13.19,13.19,0,0,1-.22-3.11s-.13,2,.39,2.42c0,0,3-6.14,3.34-5.53a9.11,9.11,0,0,0,1.34,3.83s-.17-5.09.59-5c0,0,2.34,4.82,5,5.09,0,0-1.29-2.79-.7-4.81,0,0,5.67,4.21,5.5,4.6s-1.23-5.26-2-5c0,0,5.14,5.36,4.73,5.53a14.48,14.48,0,0,0-1.58-4.66s3.68,6.47,1.61,11.5a17.37,17.37,0,0,0,2.76-3.37c.38-.69.57-1.81.2-1.83v1.08a2,2,0,0,1,1.24,1.76s3.29-9.93-2-12.29c0,0,4.85-1.75,1.23-3.72,0,0,.58,1.48-1.47,3.34,0,0,0-2.44-11.61-2.63C618.56,405.63,605.64,406.37,605.29,404.29Z"/><path class="cls-33" d="M634.81,515h-6.92a2.14,2.14,0,0,1-2.14-2.14h0c0-1.74.15-3.46,1.6-4.22a8.59,8.59,0,0,1,2.94-.47l1.78-.19A5.15,5.15,0,0,1,637,512.9h0A2.14,2.14,0,0,1,634.81,515Z"/><path class="cls-34" d="M626.34,513.09s-.83-3.59,4.78-3.83c0,0,4.42-.76,5.28,3.47"/><path class="cls-33" d="M612.49,515h-6.92a2.14,2.14,0,0,1-2.14-2.14h0c.16-.64,1.08-3.95,3.64-4.72a3.48,3.48,0,0,1,.84-.16l4.52.49a4.05,4.05,0,0,1,1.18.93,4.7,4.7,0,0,1,1,3.46h0A2.14,2.14,0,0,1,612.49,515Z"/><path class="cls-35" d="M604.08,512.91s.38-3.59,5-3.49a4.71,4.71,0,0,1,3.8,1.17,4.23,4.23,0,0,1,1.16,2.32"/><path class="cls-36" d="M584.22,421.9a10.06,10.06,0,0,1-5,7L576.72,430a12.87,12.87,0,0,1-6.48.18s-8.12-1.65-8.12-11.27c0,0,.33-10.07,9.86-10.65,9.07-.54,11.1,6.06,11.1,6.06l.35,7.53Z"/><path class="cls-37" d="M574.82,415.14a9.18,9.18,0,0,1,7.59.29l-.09-1.85s-1.92-1.87-7.43-.29C574.89,413.29,574.58,413.47,574.82,415.14Z"/><path class="cls-38" d="M578.06,425.38c0-.26,1.05,1,3.38,0"/><ellipse class="cls-39" cx="579.09" cy="418.74" rx="3.32" ry="3.3"/><circle class="cls-9" cx="580.59" cy="418.46" r="1.48"/><circle class="cls-1" cx="581.04" cy="418.1" r="0.45"/><rect class="cls-40" x="568.42" y="419.37" width="4.37" height="6.41" rx="2.18"/><path class="cls-41" d="M583.32,417.6l-.08,2.66a3.53,3.53,0,0,0,2.09-3.14l.65,2.42c2.33-2.18.64-5.32.64-5.32,3.14-1.85,2.66-4,2.66-4-1.61,1.77-3.95-.48-3.95-.48,2.42-1.61,1.69-2.66,1.69-2.66-.45.79-9.57-.16-9.57-.16a26.34,26.34,0,0,0-8.38.4,11.82,11.82,0,0,0-5.15,3.7c-1-.32,1.21-4.58,1.21-4.58-4.51,3.7-2,5.31-2,5.31-4.59,5.63-.73,9.09-.73,9.09h-2.81a4.16,4.16,0,0,0,2.41,3.39l-2.41-.57c2.25,4.75,4.83,3.7,4.83,3.7.48.41-2.26,1.09-2.26,1.09,4.27,2.94,5.94,1,5.94,1,.3.12-.86,1.65-.86,1.65,2.82-.81,5.27-6.27,5.27-6.27s-3.51,3.42-4-2.47c0,0-.36-3,2.38-2.93a3.09,3.09,0,0,1,1.44.74l-1.11-2.77s1.2,4.19,3.7,4.35c0,0-1.24-4.7-1-5.8l.22,2.9c1.94-.69,4.53-7.16,4.53-7.16v4.26a5.68,5.68,0,0,0,3.06-4.26c1.37,2.09.89,6.2.89,6.2,2.49-.16,2.33-4.83,2.33-4.83"/><path class="cls-36" d="M570.42,430.23s-.19,1.88-.19,2.58c0,0,6.08,1.81,4.33.1a23.88,23.88,0,0,1-.79-2.42Z"/><path class="cls-3" d="M570.46,432.83A4.56,4.56,0,0,0,567,438l0,28.66s7.83,3.62,12.77-.34V440s-.59-4.24-1.29-4.4L575,432.91S577.05,434.64,570.46,432.83Z"/><path class="cls-42" d="M579.75,466.33c-.28,3-1.06,2.22-1.11,3.24-.22,4.46-.34,9.78-.26,13.73l.09,4.12-9.08.94L567,466.67"/><path class="cls-43" d="M569.41,509.92s-1.24,2.44,0,4.46h14.83s3.42-5.38-2.25-4.46l-7-2.18h-4.42A14.14,14.14,0,0,0,569.41,509.92Z"/><path class="cls-42" d="M569.31,488.22c0,.07.28,16.41.28,16.42l0,.66c-1.46,5.1-.45,4-.44,4.63,3-.05,8-.62,9.2-1.24,0-.43.9.09,1.08-1a15.51,15.51,0,0,0-.44-2.82c0-5.64-.53-11.15-.58-16.79"/><ellipse class="cls-42" cx="573.9" cy="487.9" rx="4.48" ry="2.29" transform="translate(-19.34 23.7) rotate(-2.33)"/><path class="cls-44" d="M571.17,466.93,573,485.68l.88,4.5.24,15.08a3.88,3.88,0,0,0,.55,1.55,1,1,0,0,1-.43,1.25l.15,1.31"/><path class="cls-44" d="M571.3,466.93l1.81,18.75.89,4.5.24,15.08a3.73,3.73,0,0,0,.55,1.55,1,1,0,0,1-.43,1.25l.14,1.31"/><path class="cls-44" d="M574.64,467.21s.57,3.49-3,3.07"/><path class="cls-44" d="M574.52,467.21s.69,3.41-2.91,3"/><polygon class="cls-45" points="571.14 435.33 566.14 453.88 570.65 454.77 575.68 436.73 574.34 435.09 572.77 434.78 571.14 435.33"/><polygon class="cls-45" points="566.09 455.82 570.32 454.25 574.6 466.64 570.45 468.33 566.09 455.82"/><circle class="cls-46" cx="568.35" cy="454.93" r="2.38"/><circle class="cls-45" cx="573.01" cy="468.28" r="2.2"/><path class="cls-47" d="M572.16,465.43l-.11,0a.16.16,0,0,1-.2-.12h0a.17.17,0,0,1,.13-.18l.11,0a.16.16,0,0,1,.19.13h0A.16.16,0,0,1,572.16,465.43Z"/><path class="cls-47" d="M571.85,465.32l.18,0s0-.14-.06-.13"/><path class="cls-47" d="M572.25,465.21s-.17,0-.13.08l0,.12"/><path class="cls-47" d="M571.94,465.42s.08-.07.11-.05a.11.11,0,0,1,0,.07"/><path class="cls-47" d="M571.84,465.27s-.12,0-.12,0-.06.1.06.09,0-.06.08-.06"/><path class="cls-47" d="M571.85,465.21s.11-.23.26-.16-.12,0-.07.08"/><path class="cls-47" d="M571.9,465.44s.19.17.3,0-.12,0-.09,0"/><path class="cls-47" d="M572.15,465.1s.2-.11.19,0-.14,0-.1.05"/><path class="cls-47" d="M572.25,465.38s.22,0,.17-.09-.12.1-.12,0"/><circle class="cls-48" cx="569.43" cy="465.86" r="0.1"/><circle class="cls-48" cx="569.63" cy="465.83" r="0.1"/><circle class="cls-49" cx="569.79" cy="465.79" r="0.01"/><circle class="cls-49" cx="569.85" cy="465.78" r="0.01"/><circle class="cls-48" cx="569.99" cy="465.74" r="0.1"/><circle class="cls-48" cx="570.22" cy="465.71" r="0.1"/><circle class="cls-49" cx="570.36" cy="465.67" r="0.01"/><circle class="cls-49" cx="570.42" cy="465.65" r="0.01"/><circle class="cls-48" cx="570.57" cy="465.62" r="0.1"/><circle class="cls-48" cx="570.8" cy="465.57" r="0.1"/><circle class="cls-49" cx="570.95" cy="465.53" r="0.01"/><circle class="cls-49" cx="571.01" cy="465.52" r="0.01"/><circle class="cls-48" cx="571.39" cy="465.42" r="0.1"/><circle class="cls-49" cx="571.66" cy="465.36" r="0.01"/><circle class="cls-49" cx="571.6" cy="465.37" r="0.01"/><circle class="cls-49" cx="571.54" cy="465.39" r="0.01"/><circle class="cls-48" cx="571.16" cy="465.47" r="0.1"/><circle class="cls-49" cx="569.28" cy="465.89" r="0.01"/><circle class="cls-49" cx="572.34" cy="465.18" r="0.01"/><circle class="cls-48" cx="572.61" cy="465.11" r="0.1"/><circle class="cls-49" cx="572.41" cy="465.17" r="0.01"/><circle class="cls-48" cx="572.84" cy="465.03" r="0.1"/><circle class="cls-49" cx="572.47" cy="465.15" r="0.01"/><circle class="cls-48" cx="573.19" cy="464.94" r="0.1"/><circle class="cls-49" cx="572.99" cy="465" r="0.01"/><circle class="cls-48" cx="573.42" cy="464.87" r="0.1"/><circle class="cls-49" cx="573.05" cy="464.98" r="0.01"/><circle class="cls-48" cx="573.77" cy="464.77" r="0.1"/><circle class="cls-49" cx="573.56" cy="464.83" r="0.01"/><circle class="cls-48" cx="574" cy="464.69" r="0.1"/><circle class="cls-49" cx="573.62" cy="464.81" r="0.01"/><circle class="cls-49" cx="574.14" cy="464.64" r="0.01"/><path class="cls-3" d="M575.74,436.44s-1.17-3.28-6-1.09c0,0-2.12,4-1.78,6.61l5.91,2.17S576.67,440.26,575.74,436.44Z"/><path class="cls-44" d="M567,466.93a2.66,2.66,0,0,0,1.87.19v3.08l-1.28,2Z"/><path class="cls-44" d="M567,467.06a2.83,2.83,0,0,0,1.87.23"/><path class="cls-44" d="M567.57,467.43s.32,0,.31.06S567.57,467.43,567.57,467.43Z"/><path class="cls-50" d="M652.69,422.13a10.26,10.26,0,0,0,5,7.13l2.59,1.1a13.12,13.12,0,0,0,6.6.19s8.25-1.68,8.25-11.46c0,0-.34-10.24-10-10.82-9.23-.56-11.29,6.15-11.29,6.15l-.36,7.65Z"/><path class="cls-51" d="M662.25,415.26a9.3,9.3,0,0,0-7.71.3l.09-1.89s1.94-1.9,7.55-.29C662.18,413.38,662.49,413.56,662.25,415.26Z"/><path class="cls-52" d="M659,425.67c0-.27-1.07,1.05-3.44,0"/><ellipse class="cls-53" cx="657.91" cy="418.91" rx="3.38" ry="3.36"/><circle class="cls-9" cx="656.38" cy="418.63" r="1.5"/><circle class="cls-1" cx="655.93" cy="418.26" r="0.45"/><rect class="cls-54" x="664.31" y="419.55" width="4.44" height="6.52" rx="2.22" transform="translate(1333.06 845.63) rotate(180)"/><path class="cls-55" d="M653.61,417.76l.08,2.7a3.58,3.58,0,0,1-2.13-3.19l-.66,2.46c-2.37-2.21-.65-5.4-.65-5.4-3.19-1.89-2.7-4.1-2.7-4.1,1.64,1.8,4-.49,4-.49-2.46-1.63-1.72-2.7-1.72-2.7.46.81,9.74-.16,9.74-.16a26.39,26.39,0,0,1,8.51.41,11.94,11.94,0,0,1,5.24,3.76c1.06-.32-1.23-4.66-1.23-4.66,4.58,3.76,2,5.4,2,5.4,4.67,5.73.74,9.25.74,9.25h2.87a4.22,4.22,0,0,1-2.46,3.43l2.46-.57c-2.3,4.83-4.91,3.76-4.91,3.76-.5.41,2.29,1.11,2.29,1.11-4.34,3-6,1-6,1-.31.13.87,1.68.87,1.68-2.86-.82-5.35-6.38-5.35-6.38s3.57,3.48,4.1-2.51c0,0,.37-3.05-2.42-3a3.12,3.12,0,0,0-1.46.75l1.13-2.81s-1.23,4.25-3.76,4.42c0,0,1.25-4.78,1.06-5.9L663,419c-2-.71-4.61-7.28-4.61-7.28V416a5.79,5.79,0,0,1-3.11-4.33c-1.39,2.12-.9,6.3-.9,6.3-2.53-.17-2.37-4.91-2.37-4.91"/><path class="cls-50" d="M666.72,430.59s.2,1.92.2,2.63c0,0-6.18,1.84-4.4.1a22.58,22.58,0,0,0,.79-2.46Z"/><path class="cls-3" d="M666.68,433.24a4.63,4.63,0,0,1,3.51,5.26l0,29.14s-8,3.68-13-.34V440.48s.61-4.3,1.32-4.46l3.57-2.7S660,435.08,666.68,433.24Z"/><path class="cls-56" d="M657.23,467.3c.29,3,1.08,2.25,1.14,3.29.22,4.54.34,10,.26,14l-.09,4.19,9.22,1,2.45-22.06"/><path class="cls-57" d="M667.75,511.53s1.27,2.49,0,4.56H652.61s-3.5-5.5,2.29-4.56l7.2-2.22h4.51A13.71,13.71,0,0,1,667.75,511.53Z"/><path class="cls-56" d="M667.85,489.55c0,.08-.29,16.69-.29,16.69v.67c1.48,5.19.46,4.09.45,4.71-3.1-.05-8.18-.63-9.36-1.25,0-.45-.92.09-1.1-1a15.9,15.9,0,0,1,.45-2.87c0-5.74.54-11.33.58-17.07"/><ellipse class="cls-56" cx="663.18" cy="489.23" rx="2.33" ry="4.55" transform="translate(147.43 1132) rotate(-87.67)"/><path class="cls-58" d="M666,467.91,664.11,487l-.9,4.58L663,506.88a3.89,3.89,0,0,1-.56,1.57,1,1,0,0,0,.44,1.27l-.15,1.33"/><path class="cls-58" d="M665.83,467.91,664,487l-.89,4.58-.25,15.33a3.89,3.89,0,0,1-.56,1.57,1,1,0,0,0,.44,1.27l-.15,1.33"/><path class="cls-58" d="M662.43,468.19s-.58,3.55,3.08,3.13"/><path class="cls-58" d="M662.56,468.19s-.71,3.47,3,3"/><polygon class="cls-59" points="665.99 435.78 671.07 454.64 666.49 455.55 661.37 437.2 662.74 435.54 664.33 435.22 665.99 435.78"/><polygon class="cls-59" points="671.13 456.61 666.82 455.02 662.47 467.61 666.69 469.33 671.13 456.61"/><circle class="cls-60" cx="668.83" cy="455.71" r="2.42"/><circle class="cls-59" cx="664.09" cy="469.28" r="2.23"/><path class="cls-61" d="M665,466.08l.12,0a.17.17,0,0,0,.2-.13h0a.17.17,0,0,0-.13-.18l-.12,0a.17.17,0,0,0-.19.12h0A.16.16,0,0,0,665,466.08Z"/><path class="cls-61" d="M665.29,466l-.18,0s0-.14.06-.13"/><path class="cls-61" d="M664.88,465.86s.18,0,.14.08l-.06.12"/><path class="cls-61" d="M665.2,466.08s-.08-.08-.11-.06a.11.11,0,0,0,0,.07"/><path class="cls-61" d="M665.3,465.92s.12,0,.13,0,.05.11-.07.09,0-.06-.08-.05"/><path class="cls-61" d="M665.29,465.86s-.11-.24-.26-.16.12,0,.07.08"/><path class="cls-61" d="M665.24,466.09s-.2.17-.31,0,.13,0,.1,0"/><path class="cls-61" d="M665,465.75s-.19-.11-.19,0,.15,0,.1.05"/><path class="cls-61" d="M664.89,466s-.23,0-.18-.09.12.1.12,0"/><circle class="cls-62" cx="667.74" cy="466.55" r="0.1"/><circle class="cls-62" cx="667.54" cy="466.52" r="0.1"/><circle class="cls-63" cx="667.38" cy="466.47" r="0.01"/><circle class="cls-63" cx="667.32" cy="466.46" r="0.01"/><circle class="cls-62" cx="667.17" cy="466.42" r="0.1"/><circle class="cls-62" cx="666.94" cy="466.38" r="0.1"/><circle class="cls-63" cx="666.8" cy="466.34" r="0.01"/><circle class="cls-63" cx="666.74" cy="466.32" r="0.01"/><circle class="cls-62" cx="666.58" cy="466.29" r="0.1"/><circle class="cls-62" cx="666.36" cy="466.24" r="0.1"/><circle class="cls-63" cx="666.21" cy="466.2" r="0.01"/><circle class="cls-63" cx="666.14" cy="466.19" r="0.01"/><circle class="cls-62" cx="665.75" cy="466.08" r="0.1"/><circle class="cls-63" cx="665.48" cy="466.01" r="0.01"/><circle class="cls-63" cx="665.54" cy="466.03" r="0.01"/><circle class="cls-63" cx="665.6" cy="466.05" r="0.01"/><circle class="cls-62" cx="665.99" cy="466.14" r="0.1"/><circle class="cls-63" cx="667.89" cy="466.58" r="0.01"/><circle class="cls-63" cx="664.79" cy="465.83" r="0.01"/><circle class="cls-62" cx="664.52" cy="465.75" r="0.1"/><circle class="cls-63" cx="664.72" cy="465.81" r="0.01"/><circle class="cls-62" cx="664.29" cy="465.67" r="0.1"/><circle class="cls-63" cx="664.66" cy="465.79" r="0.01"/><circle class="cls-62" cx="663.93" cy="465.57" r="0.1"/><circle class="cls-63" cx="664.14" cy="465.63" r="0.01"/><circle class="cls-62" cx="663.7" cy="465.5" r="0.1"/><circle class="cls-63" cx="664.07" cy="465.62" r="0.01"/><circle class="cls-62" cx="663.35" cy="465.39" r="0.1"/><circle class="cls-63" cx="663.55" cy="465.46" r="0.01"/><circle class="cls-62" cx="663.11" cy="465.31" r="0.1"/><circle class="cls-63" cx="663.49" cy="465.44" r="0.01"/><circle class="cls-63" cx="662.97" cy="465.26" r="0.01"/><path class="cls-3" d="M661.31,436.91s1.19-3.33,6.08-1.11c0,0,2.16,4,1.82,6.73l-6,2.2S660.37,440.79,661.31,436.91Z"/><path class="cls-58" d="M670.21,467.91a2.65,2.65,0,0,1-1.89.19v3.13l1.3,2Z"/><path class="cls-58" d="M670.21,468a2.8,2.8,0,0,1-1.89.23"/><path class="cls-58" d="M669.62,468.42s-.33,0-.32.06S669.62,468.42,669.62,468.42Z"/><rect class="cls-64" x="550.14" y="398.14" width="134.68" height="125.45"/></g></g></svg>